<mxfile host="app.diagrams.net" modified="2022-11-05T03:07:23.988Z" agent="5.0 (X11; Linux x86_64) AppleWebKit/537.36 (KHTML, like Gecko) Chrome/106.0.0.0 Safari/537.36" etag="7nLtMZO9QNSWUddcUzvW" version="20.5.1" type="github">
  <diagram id="xlmmQaMRc9qQCOcvqdG0" name="第 1 页">
    <mxGraphModel dx="1422" dy="748" grid="1" gridSize="10" guides="1" tooltips="1" connect="1" arrows="1" fold="1" page="1" pageScale="1" pageWidth="827" pageHeight="1169" math="0" shadow="0">
      <root>
        <mxCell id="0" />
        <mxCell id="1" parent="0" />
        <mxCell id="D_D9o3PPzA9bASSbxqeK-17" value="" style="rounded=0;whiteSpace=wrap;html=1;" vertex="1" parent="1">
          <mxGeometry x="290" y="70" width="360" height="450" as="geometry" />
        </mxCell>
        <mxCell id="D_D9o3PPzA9bASSbxqeK-7" style="edgeStyle=orthogonalEdgeStyle;rounded=0;orthogonalLoop=1;jettySize=auto;html=1;exitX=0.5;exitY=1;exitDx=0;exitDy=0;shape=flexArrow;startArrow=block;" edge="1" parent="1" source="D_D9o3PPzA9bASSbxqeK-5" target="D_D9o3PPzA9bASSbxqeK-3">
          <mxGeometry relative="1" as="geometry" />
        </mxCell>
        <mxCell id="D_D9o3PPzA9bASSbxqeK-5" value="客户端服务" style="rounded=0;whiteSpace=wrap;html=1;" vertex="1" parent="1">
          <mxGeometry x="320" y="110" width="300" height="60" as="geometry" />
        </mxCell>
        <mxCell id="D_D9o3PPzA9bASSbxqeK-8" value="" style="group" vertex="1" connectable="0" parent="1">
          <mxGeometry x="320" y="250" width="300" height="110" as="geometry" />
        </mxCell>
        <mxCell id="D_D9o3PPzA9bASSbxqeK-3" value="" style="rounded=0;whiteSpace=wrap;html=1;" vertex="1" parent="D_D9o3PPzA9bASSbxqeK-8">
          <mxGeometry width="300" height="110" as="geometry" />
        </mxCell>
        <mxCell id="D_D9o3PPzA9bASSbxqeK-1" value="后台任务线程" style="rounded=0;whiteSpace=wrap;html=1;" vertex="1" parent="D_D9o3PPzA9bASSbxqeK-8">
          <mxGeometry x="160" y="50" width="120" height="50" as="geometry" />
        </mxCell>
        <mxCell id="D_D9o3PPzA9bASSbxqeK-2" value="web服务线程" style="rounded=0;whiteSpace=wrap;html=1;" vertex="1" parent="D_D9o3PPzA9bASSbxqeK-8">
          <mxGeometry x="20" y="50" width="120" height="50" as="geometry" />
        </mxCell>
        <mxCell id="D_D9o3PPzA9bASSbxqeK-4" value="服务端进程" style="text;html=1;align=center;verticalAlign=middle;resizable=0;points=[];autosize=1;strokeColor=none;fillColor=none;" vertex="1" parent="D_D9o3PPzA9bASSbxqeK-8">
          <mxGeometry width="80" height="30" as="geometry" />
        </mxCell>
        <mxCell id="D_D9o3PPzA9bASSbxqeK-14" value="数据库服务" style="rounded=0;whiteSpace=wrap;html=1;" vertex="1" parent="1">
          <mxGeometry x="320" y="440" width="300" height="60" as="geometry" />
        </mxCell>
        <mxCell id="D_D9o3PPzA9bASSbxqeK-16" style="edgeStyle=orthogonalEdgeStyle;shape=flexArrow;rounded=0;orthogonalLoop=1;jettySize=auto;html=1;exitX=0.5;exitY=1;exitDx=0;exitDy=0;entryX=0.5;entryY=0;entryDx=0;entryDy=0;startArrow=block;" edge="1" parent="1" source="D_D9o3PPzA9bASSbxqeK-3" target="D_D9o3PPzA9bASSbxqeK-14">
          <mxGeometry relative="1" as="geometry" />
        </mxCell>
        <mxCell id="D_D9o3PPzA9bASSbxqeK-18" value="openKylin社区数字看板" style="text;html=1;align=center;verticalAlign=middle;resizable=0;points=[];autosize=1;strokeColor=none;fillColor=none;" vertex="1" parent="1">
          <mxGeometry x="290" y="70" width="150" height="30" as="geometry" />
        </mxCell>
      </root>
    </mxGraphModel>
  </diagram>
</mxfile>
